<?xml version="1.0" encoding="UTF-8"?> <svg xmlns="http://www.w3.org/2000/svg" xmlns:xlink="http://www.w3.org/1999/xlink" preserveAspectRatio="xMidYMid" width="64" height="64" viewBox="0 0 64 64"><defs><style> .cls-2 { fill: #3d3d3d; } </style></defs><path d="M13.000,32.000 C13.000,32.000 15.000,32.000 15.000,32.000 C15.000,33.654 16.346,35.000 18.000,35.000 C19.654,35.000 21.000,33.654 21.000,32.000 C21.000,32.000 23.000,32.000 23.000,32.000 C23.000,34.757 20.757,37.000 18.000,37.000 C15.243,37.000 13.000,34.757 13.000,32.000 ZM64.000,62.000 C64.000,62.000 64.000,64.000 64.000,64.000 C64.000,64.000 49.000,64.000 49.000,64.000 C49.000,64.000 39.000,64.000 39.000,64.000 C39.000,64.000 25.000,64.000 25.000,64.000 C25.000,64.000 15.000,64.000 15.000,64.000 C15.000,64.000 -0.000,64.000 -0.000,64.000 C-0.000,64.000 -0.000,62.000 -0.000,62.000 C-0.000,62.000 15.000,62.000 15.000,62.000 C15.000,62.000 15.000,54.880 15.000,54.880 C11.220,52.241 8.508,48.847 7.095,45.000 C7.095,45.000 3.000,45.000 3.000,45.000 C1.346,45.000 -0.000,43.654 -0.000,42.000 C-0.000,42.000 -0.000,36.000 -0.000,36.000 C-0.000,34.346 1.346,33.000 3.000,33.000 C3.000,33.000 6.296,33.000 6.296,33.000 C7.377,30.239 9.628,27.395 13.000,24.534 C13.000,24.534 13.000,14.056 13.000,14.056 C13.000,14.056 21.140,19.870 21.140,19.870 C23.725,18.856 26.000,18.000 29.000,18.000 C29.000,18.000 29.000,20.000 29.000,20.000 C26.277,20.000 24.217,20.810 21.607,21.836 C21.607,21.836 20.860,22.129 20.860,22.129 C20.860,22.129 15.000,17.943 15.000,17.943 C15.000,17.943 15.000,25.470 15.000,25.470 C15.000,25.470 14.639,25.769 14.639,25.769 C11.123,28.686 8.811,31.638 7.952,34.306 C7.952,34.306 7.728,35.000 7.728,35.000 C7.728,35.000 3.000,35.000 3.000,35.000 C2.448,35.000 2.000,35.449 2.000,36.000 C2.000,36.000 2.000,42.000 2.000,42.000 C2.000,42.551 2.448,43.000 3.000,43.000 C3.000,43.000 11.000,43.000 11.000,43.000 C11.000,43.000 11.000,45.000 11.000,45.000 C11.000,45.000 9.228,45.000 9.228,45.000 C10.399,47.791 12.367,50.303 15.000,52.393 C15.000,52.393 15.000,50.000 15.000,50.000 C15.000,50.000 17.000,50.000 17.000,50.000 C17.000,50.000 17.000,62.000 17.000,62.000 C17.000,62.000 23.000,62.000 23.000,62.000 C23.000,62.000 23.000,55.000 23.000,55.000 C23.000,55.000 25.000,55.000 25.000,55.000 C25.000,55.000 25.000,57.161 25.000,57.161 C29.532,58.254 34.473,58.252 39.000,57.162 C39.000,57.162 39.000,55.000 39.000,55.000 C39.000,55.000 41.000,55.000 41.000,55.000 C41.000,55.000 41.000,62.000 41.000,62.000 C41.000,62.000 47.000,62.000 47.000,62.000 C47.000,62.000 47.000,50.000 47.000,50.000 C47.000,50.000 49.000,50.000 49.000,50.000 C49.000,50.000 49.000,52.378 49.000,52.378 C53.461,48.827 56.000,44.046 56.000,39.000 C56.000,33.009 52.532,27.489 46.485,23.855 C46.485,23.855 47.515,22.141 47.515,22.141 C53.813,25.926 57.568,31.624 57.961,37.903 C60.259,37.453 62.000,35.428 62.000,33.000 C62.000,33.000 64.000,33.000 64.000,33.000 C64.000,36.538 61.352,39.440 57.940,39.905 C57.632,45.694 54.439,51.088 49.000,54.885 C49.000,54.885 49.000,62.000 49.000,62.000 C49.000,62.000 64.000,62.000 64.000,62.000 ZM39.000,59.214 C36.730,59.726 34.385,60.000 32.000,60.000 C29.615,60.000 27.270,59.725 25.000,59.214 C25.000,59.214 25.000,62.000 25.000,62.000 C25.000,62.000 39.000,62.000 39.000,62.000 C39.000,62.000 39.000,59.214 39.000,59.214 ZM35.000,52.000 C35.000,52.000 35.000,50.000 35.000,50.000 C35.000,50.000 37.000,50.000 37.000,50.000 C37.000,50.000 37.000,52.000 37.000,52.000 C37.000,52.000 35.000,52.000 35.000,52.000 ZM31.000,52.000 C31.000,52.000 31.000,50.000 31.000,50.000 C31.000,50.000 33.000,50.000 33.000,50.000 C33.000,50.000 33.000,52.000 33.000,52.000 C33.000,52.000 31.000,52.000 31.000,52.000 ZM44.400,27.800 C40.990,25.243 36.280,24.000 30.000,24.000 C30.000,24.000 30.000,22.000 30.000,22.000 C30.816,22.000 31.606,22.022 32.375,22.062 C32.135,21.408 32.000,20.716 32.000,20.000 C32.000,16.691 34.691,14.000 38.000,14.000 C41.309,14.000 44.000,16.691 44.000,20.000 C44.000,21.617 43.364,23.118 42.242,24.236 C43.459,24.789 44.582,25.437 45.600,26.200 C45.600,26.200 44.400,27.800 44.400,27.800 ZM38.000,16.000 C35.794,16.000 34.000,17.794 34.000,20.000 C34.000,20.816 34.251,21.589 34.708,22.255 C36.917,22.511 38.909,22.960 40.703,23.604 C40.703,23.604 40.399,23.200 40.399,23.200 C41.417,22.436 42.000,21.270 42.000,20.000 C42.000,17.794 40.206,16.000 38.000,16.000 ZM39.000,8.000 C39.000,8.000 41.000,8.000 41.000,8.000 C41.000,8.000 41.000,10.000 41.000,10.000 C41.000,10.000 39.000,10.000 39.000,10.000 C39.000,10.000 39.000,8.000 39.000,8.000 ZM39.000,-0.000 C39.000,-0.000 41.000,-0.000 41.000,-0.000 C41.000,-0.000 41.000,6.000 41.000,6.000 C41.000,6.000 39.000,6.000 39.000,6.000 C39.000,6.000 39.000,-0.000 39.000,-0.000 ZM35.000,6.000 C35.000,6.000 37.000,6.000 37.000,6.000 C37.000,6.000 37.000,12.000 37.000,12.000 C37.000,12.000 35.000,12.000 35.000,12.000 C35.000,12.000 35.000,6.000 35.000,6.000 ZM35.000,2.000 C35.000,2.000 37.000,2.000 37.000,2.000 C37.000,2.000 37.000,4.000 37.000,4.000 C37.000,4.000 35.000,4.000 35.000,4.000 C35.000,4.000 35.000,2.000 35.000,2.000 ZM27.000,50.000 C27.000,50.000 29.000,50.000 29.000,50.000 C29.000,50.000 29.000,52.000 29.000,52.000 C29.000,52.000 27.000,52.000 27.000,52.000 C27.000,52.000 27.000,50.000 27.000,50.000 Z" id="path-1" class="cls-2" fill-rule="evenodd"></path></svg> 